<svg version="1.0" xmlns="http://www.w3.org/2000/svg"
    width="668.000000pt" height="422.000000pt" viewBox="0 0 668.000000 422.000000"
    preserveAspectRatio="xMidYMid meet">

    <g transform="translate(0.000000,422.000000) scale(0.100000,-0.100000)"
        fill="#000000" stroke="none">
        <path
            d="M2045 4160 c-654 -35 -1186 -268 -1532 -671 -232 -269 -366 -573
-429 -969 -27 -165 -27 -615 0 -780 73 -461 245 -805 548 -1095 137 -132 261
-219 438 -308 323 -163 670 -237 1105 -237 375 0 692 42 1020 136 72 21 141
37 155 37 14 0 84 -16 155 -37 331 -94 532 -119 950 -120 339 -1 404 4 610 45
806 161 1352 678 1514 1432 70 325 68 760 -5 1085 -156 698 -655 1203 -1362
1382 -234 59 -376 74 -692 74 -381 1 -574 -22 -931 -110 l-185 -46 -100 31
c-390 120 -835 173 -1259 151z m645 -745 c58 -9 130 -22 160 -28 l55 -12 3
-513 2 -512 -335 0 -335 0 0 -335 0 -335 305 0 305 0 0 -389 0 -388 -73 -22
c-297 -88 -764 -67 -1018 45 -340 150 -544 422 -631 839 -20 97 -23 139 -23
360 0 221 3 263 23 363 78 386 273 661 576 814 121 61 320 113 501 132 80 8
383 -4 485 -19z m2025 -24 c235 -52 391 -134 543 -283 240 -236 352 -578 339
-1038 -5 -202 -22 -313 -67 -460 -125 -407 -409 -659 -845 -752 -99 -21 -135
-23 -350 -22 -235 0 -312 8 -477 45 l-48 11 0 395 0 395 335 -4 335 -3 0 338
0 337 -335 0 -335 0 0 483 0 483 38 17 c70 31 117 44 212 61 138 23 155 24
370 21 149 -3 216 -8 285 -24z" />
    </g>
</svg>